# xmcd
#
# Track frame offsets: 
#        150
#        14488
#        30521
#        43662
#        56356
#        71499
#        87490
#        103376
#        116705
#        126055
#        137609
#
# Disc length: 2015 seconds
#
# Revision: 0
# Processed by: cddbd v1.5.2PL0 Copyright (c) Steve Scherf et al.
# Submitted via: ExactAudioCopy v1.0b1
#
DISCID=9707dd0b
DTITLE=Willie Nelson - Willie Nelson - The Box Set Series - CD3
DYEAR=1900
DGENRE=Country
TTITLE0=Why Do I Have To Choose
TTITLE1=Who'll Buy My Memories
TTITLE2=My Own Peculiar Way
TTITLE3=Forgiving You Is Easy
TTITLE4=I'm Not Trying To Forget You
TTITLE5=Is The Better Part Over
TTITLE6=Still Is Still Moving To Me
TTITLE7=Good Hearted Woman - with Waylon Jennings
TTITLE8=Something To Brag About - with Mary Kay Place
TTITLE9=Momma Don't Let Your Babies Grow Up To Be Cowboys - with Waylo
TTITLE9=n Jennings
TTITLE10=Heartbreak Hotel - with Leon Russel
EXTD=
EXTT0=
EXTT1=
EXTT2=
EXTT3=
EXTT4=
EXTT5=
EXTT6=
EXTT7=
EXTT8=
EXTT9=
EXTT10=
PLAYORDER=
